<?xml version="1.0" encoding="UTF-8"?>
<svg width="162px" height="53px" viewBox="0 0 162 53" version="1.1" xmlns="http://www.w3.org/2000/svg" xmlns:xlink="http://www.w3.org/1999/xlink">
    <!-- Generator: Sketch 48.2 (47327) - http://www.bohemiancoding.com/sketch -->
    <title>eosstore logo黑色 copy 3</title>
    <desc>Created with Sketch.</desc>
    <defs></defs>
    <g id="Page-1" stroke="none" stroke-width="1" fill="none" fill-rule="evenodd">
        <g id="eosstore-logo黑色-copy-3" fill="#000000">
            <path d="M18.0960818,0.459122917 L30.8014748,17.7744373 L35.8866621,42.0350182 L18.1,52.7512059 L0.312486688,42.0345053 L5.39843552,17.8762483 L18.0960818,0.459122917 Z M18.1039182,5.54087708 L8.20156448,19.1237517 L3.68751331,40.5654947 L18.1,49.2487941 L32.5133379,40.5649818 L27.9985252,19.0255627 L18.1039182,5.54087708 Z" id="Path" fill-rule="nonzero"></path>
            <path d="M12.1533278,24.5182894 C12.4695283,21.9442463 14.4418637,20.5 17.847245,20.5 C19.7806786,20.5 21.7139644,20.9237957 23.1910984,21.828133 L23.8185859,22.2122962 L21.5065329,23.9496675 L21.2415439,23.8377076 C20.3935908,23.4794408 19.5712345,23.339526 18.5249455,23.3079831 C16.6059383,23.2694388 15.6721461,23.6924943 15.5137419,24.7631062 C15.336634,25.9601864 16.1506522,26.6609138 18.5949524,27.7933701 C18.7953756,27.8860579 18.7953756,27.8860579 18.9963162,27.9790333 C19.1365924,28.0440751 19.2512386,28.0976693 19.3596368,28.1490131 C23.2148532,29.9648348 24.5,31.2129039 24.5,33.8779389 C24.5,37.2091648 22.0831826,39.3225008 17.8088123,39.3225008 C15.4949594,39.3225008 13.4017408,38.7082387 11.7406076,37.7002079 L11.1128216,37.3192465 L13.4269168,35.5595518 L13.7010609,35.6883344 C14.8644346,36.2348435 16.1771064,36.5143453 17.5032298,36.5143453 C20.0865709,36.5143453 21.2835519,35.4577638 21.2835519,33.8779389 C21.2835519,33.0731322 20.9549508,32.5835504 20.0411693,32.0086045 C19.4856245,31.659059 19.8105222,31.8202504 17.0565526,30.4906919 C13.2652733,28.6338879 11.8253481,27.2283456 12.1533278,24.5182894 Z" id="Fill-6" fill-rule="nonzero"></path>
            <path d="M59.1972656,39.0849609 C57.521476,39.592776 56.08692,39.8466797 54.8935547,39.8466797 C52.8622945,39.8466797 51.2055728,39.171719 49.9233398,37.8217773 C48.6411069,36.4718357 48,34.722016 48,32.5722656 C48,30.4817604 48.5649358,28.7679103 49.6948242,27.4306641 C50.8247127,26.0934178 52.269848,25.4248047 54.0302734,25.4248047 C55.6975995,25.4248047 56.9861608,26.0172467 57.8959961,27.2021484 C58.8058314,28.3870502 59.2607422,30.0712781 59.2607422,32.2548828 L59.2480469,33.0292969 L50.5517578,33.0292969 C50.9156919,36.3047039 52.519517,37.9423828 55.3632812,37.9423828 C56.4043021,37.9423828 57.6822841,37.6630887 59.1972656,37.1044922 L59.1972656,39.0849609 Z M50.6660156,31.1503906 L56.7470703,31.1503906 C56.7470703,28.5859247 55.7906997,27.3037109 53.8779297,27.3037109 C51.9566961,27.3037109 50.8860688,28.5859247 50.6660156,31.1503906 Z M68.9717297,39.8466797 C66.9997146,39.8466797 65.4255116,39.1928776 64.2490734,37.8852539 C63.0726352,36.5776302 62.484425,34.8278104 62.484425,32.6357422 C62.484425,30.4182832 63.0747511,28.6642317 64.2554211,27.3735352 C65.436091,26.0828386 67.0378003,25.4375 69.0605968,25.4375 C71.0833934,25.4375 72.6851027,26.0828386 73.8657726,27.3735352 C75.0464426,28.6642317 75.6367687,30.4098197 75.6367687,32.6103516 C75.6367687,34.8616649 75.0443267,36.6305274 73.859425,37.9169922 C72.6745232,39.203457 71.0453077,39.8466797 68.9717297,39.8466797 Z M69.0098156,37.9677734 C71.6589174,37.9677734 73.688683,36.1438981 73.688683,32.5722656 C73.688683,29.0429511 71.6758443,27.3164062 69.0605968,27.3164062 C66.453813,27.3164062 64.5243098,29.0641099 64.5243098,32.6103516 C64.5243098,36.1650568 66.4368861,37.9677734 69.0098156,37.9677734 Z M83.2022484,39.8466797 C82.0596645,39.8466797 79.5450223,39.046875 78.0112924,38.2378449 L79.0381859,36.7490234 C80.6716576,37.5615275 82.0935184,37.9677734 83.3038109,37.9677734 C84.0232155,37.9677734 84.6198892,37.7731139 85.0938499,37.3837891 C85.5678107,36.9944642 85.8047874,36.5078154 85.8047874,35.9238281 C85.8047874,35.0690061 85.1404061,34.3623075 83.8116234,33.8037109 L82.3516624,33.1816406 C80.1934485,32.2845007 79.1143578,30.9938235 79.1143578,29.3095703 C79.1143578,28.1077414 79.5396465,27.1619501 80.3902367,26.472168 C81.2408269,25.7823859 82.4066681,25.4375 83.8877953,25.4375 C84.6579814,25.4375 85.6101203,25.5432932 86.7442406,25.7548828 L88.305764,26.3094336 L87.2647484,27.9384766 C85.868257,27.5237609 84.7595442,27.3164062 83.9385765,27.3164062 C82.3304956,27.3164062 81.5264671,27.9003848 81.5264671,29.0683594 C81.5264671,29.8216183 82.135836,30.4563776 83.3545921,30.9726562 L84.5606468,31.4804688 C85.9232838,32.0559925 86.8881179,32.6632455 87.4551781,33.3022461 C88.0222382,33.9412467 88.305764,34.7389275 88.305764,35.6953125 C88.305764,36.905605 87.8275787,37.9000612 86.8711937,38.6787109 C85.9148087,39.4573607 84.6918392,39.8466797 83.2022484,39.8466797 Z M105.34102,39.8466797 C104.198436,39.8466797 101.501473,39.0849609 99.874146,38.2378449 L101.176958,36.7490234 C102.810429,37.5615275 104.23229,37.9677734 105.442583,37.9677734 C106.161987,37.9677734 106.758661,37.7731139 107.232622,37.3837891 C107.706582,36.9944642 107.943559,36.5078154 107.943559,35.9238281 C107.943559,35.0690061 107.279178,34.3623075 105.950395,33.8037109 L104.490434,33.1816406 C102.33222,32.2845007 101.25313,30.9938235 101.25313,29.3095703 C101.25313,28.1077414 101.678418,27.1619501 102.529008,26.472168 C103.379599,25.7823859 104.54544,25.4375 106.026567,25.4375 C106.796753,25.4375 107.748892,25.5432932 108.883012,25.7548828 L110.444536,26.3094336 L109.40352,27.9384766 C108.007029,27.5237609 106.898316,27.3164062 106.077348,27.3164062 C104.469267,27.3164062 103.665239,27.9003848 103.665239,29.0683594 C103.665239,29.8216183 104.274608,30.4563776 105.493364,30.9726562 L106.699419,31.4804688 C108.062056,32.0559925 109.02689,32.6632455 109.59395,33.3022461 C110.16101,33.9412467 110.444536,34.7389275 110.444536,35.6953125 C110.444536,36.905605 109.966351,37.9000612 109.009966,38.6787109 C108.053581,39.4573607 106.830611,39.8466797 105.34102,39.8466797 Z M119.076422,39.8466797 C117.806884,39.8466797 116.81666,39.482751 116.105719,38.7548828 C115.394778,38.0270146 115.039312,37.0156315 115.039312,35.7207031 L115.039312,27.6210938 L113.31275,27.6210938 L113.31275,25.7421875 L115.039312,25.7421875 L115.039312,23.2412109 L117.540289,23 L117.540289,25.7421875 L121.145758,25.7421875 L121.145758,27.6210938 L117.540289,27.6210938 L117.540289,35.2636719 C117.540289,37.0664153 118.318927,37.9677734 119.876226,37.9677734 C120.206306,37.9677734 120.60832,37.912761 121.082281,37.8027344 L121.082281,39.5292969 C120.312095,39.7408865 119.643482,39.8466797 119.076422,39.8466797 Z M130.05694,39.8466797 C128.084925,39.8466797 126.510722,39.1928776 125.334284,37.8852539 C124.157846,36.5776302 123.569636,34.8278104 123.569636,32.6357422 C123.569636,30.4182832 124.159962,28.6642317 125.340632,27.3735352 C126.521302,26.0828386 128.123011,25.4375 130.145808,25.4375 C132.168604,25.4375 133.770313,26.0828386 134.950983,27.3735352 C136.131653,28.6642317 136.72198,30.4098197 136.72198,32.6103516 C136.72198,34.8616649 136.129538,36.6305274 134.944636,37.9169922 C133.759734,39.203457 132.130519,39.8466797 130.05694,39.8466797 Z M130.095026,37.9677734 C132.744128,37.9677734 134.739973,36.181984 134.739973,32.6103516 C134.739973,29.081037 132.761055,27.3164062 130.145808,27.3164062 C127.539024,27.3164062 125.593779,29.0895005 125.593779,32.6357422 C125.593779,36.1904475 127.522097,37.9677734 130.095026,37.9677734 Z M140.631209,39.5292969 L140.631209,25.7421875 L143.132186,25.7421875 L143.132186,28.3320312 C144.122425,26.4023341 145.561213,25.4375 147.448592,25.4375 C147.7025,25.4375 147.969098,25.4586586 148.248397,25.5009766 L148.248397,27.8369141 C147.816754,27.6930331 147.435898,27.6210938 147.105819,27.6210938 C145.523128,27.6210938 144.198597,28.5605375 143.132186,30.4394531 L143.132186,39.5292969 L140.631209,39.5292969 Z M161.374423,39.0849609 C159.698634,39.592776 158.264078,39.8466797 157.070712,39.8466797 C155.039452,39.8466797 153.38273,39.171719 152.100497,37.8217773 C150.818264,36.4718357 150.177158,34.722016 150.177158,32.5722656 C150.177158,30.4817604 150.742093,28.7679103 151.871982,27.4306641 C153.00187,26.0934178 154.447006,25.4248047 156.207431,25.4248047 C157.874757,25.4248047 159.163318,26.0172467 160.073154,27.2021484 C160.982989,28.3870502 161.4379,30.0712781 161.4379,32.2548828 L161.425204,33.0292969 L152.728915,33.0292969 C153.09285,36.3047039 154.696675,37.9423828 157.540439,37.9423828 C158.58146,37.9423828 159.859442,37.6630887 161.374423,37.1044922 L161.374423,39.0849609 Z M152.843173,31.1503906 L158.924228,31.1503906 C158.924228,28.5859247 157.967857,27.3037109 156.055087,27.3037109 C154.133854,27.3037109 153.063226,28.5859247 152.843173,31.1503906 Z" id="eos-store-copy"></path>
        </g>
    </g>
</svg>